<?xml version="1.0" encoding="UTF-8"?>
<!DOCTYPE svg PUBLIC "-//W3C//DTD SVG 1.1//EN" "http://www.w3.org/Graphics/SVG/1.1/DTD/svg11.dtd">
<!-- Creator: CorelDRAW 2019 (64-Bit) -->
<svg xmlns="http://www.w3.org/2000/svg" xml:space="preserve" width="59.9998mm" height="20.0004mm" version="1.1" style="shape-rendering:geometricPrecision; text-rendering:geometricPrecision; image-rendering:optimizeQuality; fill-rule:evenodd; clip-rule:evenodd"
viewBox="0 0 6029.44 2009.86"
 xmlns:xlink="http://www.w3.org/1999/xlink">
 <defs>
  <style type="text/css">
   <![CDATA[
    .fil1 {fill:#6E6E6E;fill-rule:nonzero}
    .fil0 {fill:#E61E1E;fill-rule:nonzero}
   ]]>
  </style>
 </defs>
 <g id="Ebene_x0020_1">
  <metadata id="CorelCorpID_0Corel-Layer"/>
  <g id="_2766699409072">
   <polygon class="fil0" points="2723.47,906.37 2826.89,910.13 2834.19,830.57 2828.22,822.61 2560.38,822.61 2566.35,1123.6 2560.38,1250.23 2668.45,1250.23 2664.47,1113 2665.13,1089.8 2712.2,1089.8 2793.75,1091.78 2800.37,1012.23 2794.42,1004.27 2720.16,1006.26 2666.46,1006.26 2668.45,906.81 "/>
   <path id="1" class="fil0" d="M3051.05 671.46c-30.5,0 -49.72,19.22 -49.72,50.39 0,29.83 15.91,46.41 45.74,46.41 30.5,0 49.72,-19.23 49.72,-50.39 0,-29.17 -17.24,-46.41 -45.74,-46.41zm120.66 0c-31.16,0 -49.72,19.22 -49.72,50.39 0,29.83 15.91,46.41 45.74,46.41 30.5,0 49.06,-19.23 49.06,-50.39 0,-29.17 -16.57,-46.41 -45.08,-46.41zm114.58 151.15l-109.5 0 4.63 268.5c0.66,54.37 -23.09,79.56 -74.03,79.56 -50.28,0 -73.37,-25.86 -72.71,-82.2l4.64 -265.86 -107.51 0 2.64 215.47 -1.33 64.97c-2.64,98.78 58.46,153.81 169.62,153.81 114.47,0 179.55,-55.69 178.88,-155.8l0.66 -61.65 3.98 -216.8z"/>
   <path id="2" class="fil0" d="M3643.48 1081.17c47.73,-30.5 76.24,-76.91 76.24,-129.95 0,-83.53 -52.38,-129.28 -144.53,-129.28l-180 0.66 5.97 300.99 -5.97 126.63 107.74 0 -3.98 -137.23 56.36 0c21.88,46.41 45.08,91.49 68.95,135.9l10.6 8.62c36.47,-2.65 72.26,-9.29 106.74,-20.55l1.33 -11.94c-35.8,-47.07 -68.28,-95.47 -99.45,-143.86zm-139.88 -180.33l35.79 -1.99c45.74,1.99 66.96,20.55 66.96,62.32 0,38.45 -15.24,61.65 -47.73,73.59l-57.67 -2.65 2.65 -131.27z"/>
   <polygon id="3" class="fil0" points="4390.66,822.61 4268.67,822.61 4251.44,886.92 4191.76,1067.91 4185.13,1067.91 4130.11,884.93 4114.86,822.61 3990.88,822.61 3948.45,1250.23 4037.95,1250.23 4046.57,1110.35 4059.83,979.74 4067.12,979.74 4141.38,1207.14 4223.59,1207.14 4308.44,979.74 4315.08,979.74 4327.01,1120.28 4332.31,1250.23 4427.12,1250.23 "/>
   <path id="4" class="fil0" d="M4892.14 822.61l-109.49 0 4.63 268.5c0.66,54.37 -23.09,79.56 -74.03,79.56 -50.28,0 -73.37,-25.86 -72.71,-82.2l4.64 -265.86 -107.51 0 2.64 215.47 -1.33 64.97c-2.64,98.78 58.46,153.81 169.62,153.81 114.47,0 179.54,-55.69 178.87,-155.8l0.66 -61.65 3.98 -216.8z"/>
   <path id="5" class="fil0" d="M5168.45 815.99c-98.12,0 -165.08,59.66 -165.08,137.89 0,127.96 182.97,120.66 182.97,184.97 0,18.56 -15.24,37.78 -51.05,37.78 -29.16,0 -77.56,-15.91 -117.34,-49.06l-11.27 6.63 -15.25 96.13c44.42,17.9 90.17,26.52 132.6,26.52 103.43,0 169.06,-61 169.06,-137.24 0,-125.97 -184.3,-122.65 -184.3,-183.64 0,-18.56 17.23,-36.47 47.73,-36.47 24.53,0 60.32,13.26 94.14,35.14l15.91 -5.97 17.23 -90.16c-43.09,-16.58 -83.53,-22.54 -115.35,-22.54z"/>
   <polygon id="6" class="fil0" points="5528.51,822.61 5418.45,822.61 5424.42,1123.6 5418.45,1250.23 5526.52,1250.23 5522.54,1113 "/>
   <path id="7" class="fil0" d="M5876.31 1024.15l140.55 -201.54 -114.69 0 -23.87 43.1 -104.09 147.84 3.32 -190.94 -108.4 0 5.31 300.99 -5.31 126.63 107.07 0 -3.98 -137.23 1.33 -73.59c43.09,72.93 88.83,142.54 135.9,211.48l12.6 6.63c35.13,-3.32 70.94,-9.29 106.07,-17.91l1.33 -11.93c-53.69,-64.97 -106.07,-133.92 -153.14,-203.53z"/>
   <path class="fil1" d="M-0 534.08c1.42,-3.55 64.47,-8.5 107.67,-8.5 21.25,0 60.21,1.42 60.21,2.12l6.37 -32.58 -1.42 -2.83c-7.79,0.71 -21.25,2.13 -31.88,2.13 -24.79,0 -31.16,-9.92 -31.16,-48.18l2.83 -126.79c47.45,-4.25 103.42,-7.79 117.58,-7.79 24.08,0 75.08,0.7 107.67,0.7l0 106.96c0,62.33 -9.22,75.09 -53.83,75.79l-6.38 31.88c25.5,-0.71 63.75,-1.42 81.46,-1.42 22.67,0 63.04,1.42 87.13,2.12l6.37 -32.58 -1.42 -2.83c-7.79,0.71 -21.24,2.13 -31.87,2.13 -24.79,0 -31.17,-9.22 -31.17,-43.92 0,-60.2 4.25,-200.45 9.92,-310.25 1.42,-27.62 10.62,-35.41 45.33,-40.38l2.83 -31.88c-28.33,3.55 -64.45,6.38 -85,6.38 -22.67,0 -69.42,-1.42 -69.42,-2.13l-4.96 31.17 1.42 2.83c7.08,-0.71 17.72,-1.42 24.09,-1.42 21.25,0 26.21,7.79 26.21,38.25l-0.7 128.92c-48.18,5.67 -73.67,7.08 -104.84,7.08l-118.99 -0.71 4.25 -114.75c2.12,-51 7.07,-57.37 46.75,-63.75l2.83 -31.88c-25.5,3.55 -58.08,6.38 -75.79,6.38 -19.84,0 -56.67,-1.42 -78.63,-2.13l-4.95 31.17 1.42 2.83c7.08,-0.71 18.42,-1.42 24.09,-1.42 21.24,0 26.21,7.79 26.21,38.25l-0.71 297.5c0,39.66 -11.34,52.42 -55.25,60.91l-4.25 32.59z"/>
   <path id="1" class="fil1" d="M668.18 534.08c92.79,0 164.33,-78.62 164.33,-179.92 0,-92.79 -56.67,-157.25 -137.41,-157.25 -92.79,0 -164.33,78.62 -164.33,179.92 0,92.79 55.95,157.25 137.41,157.25zm19.84 -34.71c-59.5,0 -100.59,-58.08 -100.59,-143.08 0,-74.38 33.29,-121.13 86.42,-121.13 59.5,0 100.58,59.5 100.58,144.51 0,73.66 -33.29,119.7 -86.41,119.7z"/>
   <path id="2" class="fil1" d="M1079.23 534.08c34.71,0 97.04,-47.46 97.04,-47.46l-7.79 -21.96 -4.25 -1.42c0,0 -40.38,23.37 -80.04,23.37 -59.5,0 -96.34,-51 -96.34,-133.16 0,-75.79 31.88,-118.3 89.96,-118.3 34.71,0 58.08,23.37 58.08,58.08l0 21.96 29.04 -2.12c2.13,-55.25 14.87,-97.75 14.87,-97.75l-2.12 -4.96c0,0 -37.54,-13.46 -82.87,-13.46 -92.79,0 -163.62,78.62 -163.62,180.62 0,94.91 58.07,156.54 148.03,156.54z"/>
   <path id="3" class="fil1" d="M1278.5 497.95l-4.25 29.04c19.84,-0.71 50.3,-1.42 70.12,-1.42 19.12,0 48.17,1.42 64.47,2.12l6.37 -30.45 -1.42 -2.83c-7.79,0.7 -19.12,1.42 -24.79,1.42 -18.42,0 -25.5,-10.63 -25.5,-39.67 0,-60.2 0.71,-119 2.13,-172.12 27.62,-21.96 66.59,-38.96 89.96,-38.96 37.54,0 58.79,26.92 58.79,73.67l-4.25 140.25c0,24.79 -11.33,38.26 -39.66,46.05l-2.83 29.04c26.21,-4.96 55.96,-8.5 72.96,-8.5 19.12,0 47.46,1.42 63.05,2.12l5.66 -30.45 -1.41 -2.83c-7.8,0.7 -19.13,1.42 -24.8,1.42 -17.71,0 -24.79,-12.05 -24.79,-39.67 0,-41.08 11.34,-143.08 11.34,-167.87 0,-58.08 -35.41,-91.38 -97.04,-91.38 -26.91,0 -92.78,46.05 -106.25,55.25 3.55,-133.17 10.63,-232.34 17,-242.96l-4.25 -9.2c-26.21,7.08 -72.24,16.29 -104.83,20.54l-2.83 22.66 2.83 2.13 14.87 0c18.42,0 26.21,11.34 26.21,36.83l0 376.83c0,26.21 -9.91,36.13 -36.83,38.96z"/>
   <path id="4" class="fil1" d="M1800.76 534.08c69.42,0 129.62,-46.75 129.62,-101.29 0,-35.41 -22.66,-58.79 -99.16,-99.16 -43.91,-22.67 -61.62,-41.08 -61.62,-63.75 0,-21.24 25.49,-38.96 57.37,-38.96 40.38,0 58.08,14.88 58.08,48.88 0,6.37 -1.42,20.54 -1.42,20.54l26.21 -2.12c3.55,-46.75 13.47,-86.42 13.47,-86.42l-1.42 -3.54c0,0 -32.59,-11.34 -70.84,-11.34 -74.37,0 -130.34,42.5 -130.34,100.58 0,34.01 23.37,60.92 77.21,88.54 65.17,34.71 82.17,49.58 82.17,72.96 0,23.37 -28.34,41.79 -63.75,41.79 -50.3,0 -68.71,-22.67 -68.71,-85l-24.79 3.54c-0.71,23.37 -5.67,80.04 -8.5,94.91l2.12 4.96c0,0 32.59,14.87 84.29,14.87z"/>
   <path id="5" class="fil1" d="M2185.61 534.08c34.71,0 97.04,-47.46 97.04,-47.46l-7.79 -21.96 -4.25 -1.42c0,0 -40.38,23.37 -80.04,23.37 -59.5,0 -96.34,-51 -96.34,-133.16 0,-75.79 31.88,-118.3 89.96,-118.3 34.71,0 58.08,23.37 58.08,58.08l0 21.96 29.04 -2.12c2.13,-55.25 14.87,-97.75 14.87,-97.75l-2.12 -4.96c0,0 -37.54,-13.46 -82.87,-13.46 -92.79,0 -163.62,78.62 -163.62,180.62 0,94.91 58.07,156.54 148.03,156.54z"/>
   <path id="6" class="fil1" d="M2384.87 497.95l-4.25 29.04c19.84,-0.71 50.3,-1.42 70.12,-1.42 19.12,0 48.17,1.42 64.47,2.12l6.37 -30.45 -1.42 -2.83c-7.79,0.7 -19.12,1.42 -24.79,1.42 -18.42,0 -25.5,-10.63 -25.5,-39.67 0,-60.2 0.71,-119 2.13,-172.12 27.62,-21.96 66.59,-38.96 89.96,-38.96 37.54,0 58.79,26.92 58.79,73.67l-4.25 140.25c0,24.79 -11.33,38.26 -39.66,46.05l-2.83 29.04c26.21,-4.96 55.96,-8.5 72.96,-8.5 19.12,0 47.46,1.42 63.05,2.12l5.66 -30.45 -1.41 -2.83c-7.8,0.7 -19.13,1.42 -24.8,1.42 -17.71,0 -24.79,-12.05 -24.79,-39.67 0,-41.08 11.34,-143.08 11.34,-167.87 0,-58.08 -35.41,-91.38 -97.04,-91.38 -26.91,0 -92.78,46.05 -106.25,55.25 3.55,-133.17 10.63,-232.34 17,-242.96l-4.25 -9.2c-26.21,7.08 -72.24,16.29 -104.83,20.54l-2.83 22.66 2.83 2.13 14.87 0c18.42,0 26.21,11.34 26.21,36.83l0 376.83c0,26.21 -9.91,36.13 -36.83,38.96z"/>
   <path id="7" class="fil1" d="M2835.61 279.79l-2.83 172.12c0,53.13 33.29,82.17 94.21,82.17 12.74,0 53.12,-24.09 98.45,-58.8l3.55 1.42c3.54,38.26 24.79,57.38 63.04,57.38 24.09,0 61.62,-56.67 61.62,-56.67l-9.91 -11.34c0,0 -19.84,17.71 -42.51,17.71 -18.41,0 -29.04,-12.04 -29.04,-32.58 0,-113.33 7.08,-224.55 15.59,-245.79l-4.25 -8.5c0,0 -58.79,13.46 -109.08,20.54l-2.83 25.5 17 -0.71c26.21,0 35.41,9.92 35.41,38.25l0 164.33c-23.37,17 -53.12,40.38 -85.71,40.38 -38.25,0 -56.67,-22.66 -56.67,-69.41 0,-82.87 9.22,-185.59 18.42,-210.38l-4.25 -8.5c0,0 -57.37,14.17 -101.28,21.25l-2.83 26.21c0,0 9.91,-2.83 17.71,-2.83 17.71,0 26.21,13.46 26.21,38.25z"/>
   <path id="8" class="fil1" d="M3221.86 534.08c28.34,-4.96 55.96,-8.5 72.96,-8.5 19.12,0 47.46,1.42 63.05,2.12l5.67 -30.45 -1.42 -2.83 -24.79 1.42c-17.72,0 -24.8,-11.34 -24.8,-39.67 0,-208.25 9.92,-431.37 19.84,-446.95l-4.25 -9.2c-34.71,9.2 -70.12,15.58 -104.83,20.54l-2.83 24.08 2.13 1.42c6.37,-0.7 12.04,-1.42 16.29,-1.42 21.24,0 25.49,9.22 25.49,37.54l0 347.79c0,44.63 1.42,63.75 -39.66,75.09l-2.83 29.04z"/>
   <path id="9" class="fil1" d="M3597.51 534.08c31.16,0 80.04,-27.62 108.37,-48.17l-7.79 -20.54 -4.25 -1.42c-31.88,14.87 -60.92,21.96 -86.41,21.96 -66.59,0 -106.25,-51 -105.55,-143.2l195.5 0 9.22 -8.5c2.12,-7.21 4.25,-22.08 4.25,-34.83 0,-67.06 -36.13,-102.47 -105.55,-102.47 -84.29,0 -156.53,83.47 -156.53,180.5 0,93.63 59.49,156.67 148.75,156.67zm-92.79 -217.69c8.5,-51.59 43.21,-83.35 87.13,-83.35 37.54,0 58.79,20.42 58.79,57.84 0,14.17 -3.54,17.71 -17.71,19.12l-128.21 6.38z"/>
   <path class="fil1" d="M1043.61 1846.95c0,0 45.33,-8.5 80.75,-8.5 38.25,0 105.54,2.83 105.54,2.83l6.38 -33.29 -1.42 -2.83c0,0 -36.13,2.13 -50.3,2.13 -24.79,0 -31.16,-9.92 -31.16,-48.18l2.83 -117.57c12.04,-2.13 33.29,-4.96 54.54,-4.96 33.29,0 87.13,2.13 87.13,2.13l9.92 -42.51 -2.83 -3.54c0,0 -52.42,7.79 -74.37,7.79l-72.96 -0.7 5.67 -149.46c0.7,-26.21 3.54,-27.62 49.58,-27.62 86.41,0 94.91,4.25 94.91,50.3 0,9.92 -1.42,32.58 -1.42,32.58l34 -2.83c4.25,-65.17 16.3,-119.7 16.3,-119.7l-2.13 -4.25c-44.63,6.37 -102,8.5 -199.04,8.5 -42.5,0 -98.46,-2.13 -98.46,-2.13l-4.95 31.17 1.42 2.83c0,0 15.59,-1.42 24.09,-1.42 21.24,0 26.21,7.79 26.21,38.25l-0.71 297.5c0,39.66 -11.34,52.42 -55.25,60.91l-4.25 32.59z"/>
   <path id="1" class="fil1" d="M1429.29 1812.94l-3.55 28.34c0,0 32.59,-2.83 74.37,-2.83 27.62,0 72.25,1.42 72.25,1.42l6.37 -31.16 -0.7 -2.83c0,0 -21.25,1.42 -31.16,1.42 -26.92,0 -34.01,-9.22 -34.01,-41.09 0,-15.58 5.67,-144.5 5.67,-144.5 19.84,-29.75 45.33,-48.17 65.87,-48.17 15.59,0.23 19.13,9.45 19.13,48.4l27.62 -2.12c1.42,-43.44 11.33,-101.53 11.33,-101.53l-2.12 -2.83c0,0 -6.38,-2.83 -21.96,-2.83 -28.34,0 -70.84,31.16 -99.88,75.79l-2.83 -2.12c-0.7,-33.29 6.38,-72.97 6.38,-72.97l-4.96 -4.24c0,0 -52.42,13.46 -95.63,21.24l-2.12 21.96 3.54 4.96c0,0 7.08,-2.13 14.88,-2.13 19.12,0 26.91,12.04 26.91,43.21l0 155.83c0,44.63 -7.08,55.96 -35.41,58.79z"/>
   <path id="2" class="fil1" d="M1862.43 1846.95c31.16,0 80.04,-27.62 108.37,-48.17l-7.79 -20.54 -4.25 -1.42c-31.88,14.87 -60.92,21.96 -86.41,21.96 -66.59,0 -106.25,-51 -105.55,-143.2l195.5 0 9.22 -8.5c2.12,-7.21 4.25,-22.08 4.25,-34.83 0,-67.06 -36.13,-102.47 -105.55,-102.47 -84.29,0 -156.53,83.47 -156.53,180.5 0,93.63 59.49,156.67 148.75,156.67zm-92.79 -217.69c8.5,-51.59 43.21,-83.35 87.13,-83.35 37.54,0 58.79,20.42 58.79,57.84 0,14.17 -3.54,17.71 -17.71,19.12l-128.21 6.38z"/>
   <path id="3" class="fil1" d="M2135.48 1426.2c24.09,0 41.79,-19.13 41.79,-41.79 0,-18.42 -12.04,-36.13 -34.71,-36.13 -24.08,0 -41.79,19.12 -41.79,41.79 0,17.71 11.34,36.13 34.71,36.13zm-62.33 420.75c0,0 43.21,-8.5 72.97,-8.5 26.21,0 63.04,2.12 63.04,2.12l5.67 -30.45 -1.42 -2.83c0,0 -16.29,1.42 -24.79,1.42 -17.71,0 -24.79,-12.05 -24.79,-39.67 0,-111.2 7.79,-230.91 16.29,-250.75l-3.54 -8.5c0,0 -54.55,13.46 -102.01,20.54l-2.83 26.21c0,0 9.92,-2.83 17.72,-2.83 17.71,0 26.21,12.05 26.21,38.26l0 179.91c0,24.79 -11.34,38.26 -39.67,46.05l-2.83 29.04z"/>
   <path id="4" class="fil1" d="M2436.39 1846.95c97.64,0 176.14,-82.17 176.14,-185.59 0,-89.96 -55.96,-151.58 -136.59,-151.58 -9.92,0 -42.39,18.42 -85.6,49.58 3.55,-133.16 9.92,-227.37 16.3,-237.29l-4.25 -9.2c0,0 -56.08,14.16 -104.95,20.54l-2.83 23.37 2.12 2.12c0,0 7.8,-2.12 15.59,-2.12 17.71,0 26.21,12.04 26.21,38.25l0 437.75 6.38 5.67c0,0 44.03,8.5 91.49,8.5zm19.72 -38.96c-22.55,0 -52.3,-6.37 -69.3,-14.87l2.12 -196.92c24.09,-21.96 56.56,-38.25 75.68,-38.25 52.42,0 93.38,57.38 93.38,129.62 0,74.37 -38.84,120.42 -101.88,120.42z"/>
   <path id="5" class="fil1" d="M2738.24 1592.65l-2.83 172.12c0,53.13 33.29,82.17 94.21,82.17 12.74,0 53.12,-24.09 98.45,-58.8l3.55 1.42c3.54,38.26 24.79,57.38 63.04,57.38 24.09,0 61.62,-56.67 61.62,-56.67l-9.91 -11.34c0,0 -19.84,17.71 -42.51,17.71 -18.41,0 -29.04,-12.04 -29.04,-32.58 0,-113.33 7.08,-224.55 15.59,-245.79l-4.25 -8.5c0,0 -58.79,13.46 -109.08,20.54l-2.83 25.5 17 -0.71c26.21,0 35.41,9.92 35.41,38.25l0 164.33c-23.37,17 -53.12,40.38 -85.71,40.38 -38.25,0 -56.67,-22.66 -56.67,-69.41 0,-82.87 9.22,-185.59 18.42,-210.38l-4.25 -8.5c0,0 -57.37,14.17 -101.28,21.25l-2.83 26.21c0,0 9.91,-2.83 17.71,-2.83 17.71,0 26.21,13.46 26.21,38.25z"/>
   <path id="6" class="fil1" d="M3135.95 1812.94l-3.55 28.34c0,0 32.59,-2.83 74.37,-2.83 27.62,0 72.25,1.42 72.25,1.42l6.37 -31.16 -0.7 -2.83c0,0 -21.25,1.42 -31.16,1.42 -26.92,0 -34.01,-9.22 -34.01,-41.09 0,-15.58 5.67,-144.5 5.67,-144.5 19.84,-29.75 45.33,-48.17 65.87,-48.17 15.59,0.23 19.13,9.45 19.13,48.4l27.62 -2.12c1.42,-43.44 11.33,-101.53 11.33,-101.53l-2.12 -2.83c0,0 -6.38,-2.83 -21.96,-2.83 -28.34,0 -70.84,31.16 -99.88,75.79l-2.83 -2.12c-0.7,-33.29 6.38,-72.97 6.38,-72.97l-4.96 -4.24c0,0 -52.42,13.46 -95.63,21.24l-2.12 21.96 3.54 4.96c0,0 7.08,-2.13 14.88,-2.13 19.12,0 26.91,12.04 26.91,43.21l0 155.83c0,44.63 -7.08,55.96 -35.41,58.79z"/>
   <path id="7" class="fil1" d="M3738.39 1538.82l7.8 -39.66 -2.13 -2.83c-42.5,11.34 -79.33,19.12 -97.75,21.24 -18.42,0 -43.21,-7.79 -69.42,-7.79 -71.55,0 -131.75,58.79 -131.75,128.92 0,40.37 19.83,72.96 52.42,91.37l0 2.83c-22.67,13.47 -42.5,29.04 -59.5,45.45 1.42,36.95 28.33,60.8 77.22,69.3l0 4.25c-30.47,22.67 -57.39,47.46 -70.13,63.75 0,58.8 41.08,94.21 107.68,94.21 88.54,0 174.95,-62.33 174.95,-125.37 0,-104.01 -234.47,-54.43 -234.47,-111.09 0,-10.74 8.5,-19.95 30.47,-32.7 12.04,3.54 25.49,5.67 39.66,5.67 77.92,0 139.54,-55.96 139.54,-125.38 0,-26.91 -9.2,-51 -28.34,-72.24l2.83 -3.55c14.88,-1.42 40.38,-3.54 60.92,-6.37zm-158.67 176.37c-48.17,0 -81.47,-36.83 -81.47,-90.66 0,-48.17 26.93,-78.62 70.13,-78.62 48.18,0 81.46,37.54 81.46,92.08 0,48.17 -26.91,77.21 -70.12,77.21zm-34 138.12c113.33,14.87 136.71,24.09 136.71,51.71 0,37.54 -50.3,70.12 -105.55,70.12 -45.33,0 -75.09,-21.25 -75.09,-53.13 0,-23.37 15.59,-48.87 43.92,-68.71z"/>
  </g>
 </g>
</svg>
